<svg xmlns="http://www.w3.org/2000/svg" xmlns:xlink="http://www.w3.org/1999/xlink" width="500" zoomAndPan="magnify" viewBox="0 0 375 374.999991" height="500" preserveAspectRatio="xMidYMid meet" version="1.2"><defs/><g id="eccf06667c"><rect x="0" width="375" y="0" height="374.999991" style="fill:#ffffff;fill-opacity:1;stroke:none;"/><rect x="0" width="375" y="0" height="374.999991" style="fill:#ffde59;fill-opacity:1;stroke:none;"/><g style="fill:#004aad;fill-opacity:1;"><g transform="translate(72.656251, 313.499979)"><path style="stroke:none" d="M 96.84375 3.234375 L 82.078125 0.71875 L 68.046875 -4.3125 L 60.84375 -6.484375 L 54 -9.71875 L 48.953125 -15.125 L 36.359375 -23.046875 L 31.6875 -28.4375 L 26.640625 -33.125 L 19.796875 -46.4375 L 17.640625 -52.921875 L 16.203125 -60.125 L 15.125 -67.3125 L 18 -74.875 L 24.484375 -77.765625 L 52.203125 -79.203125 L 59.046875 -78.125 L 65.515625 -78.84375 L 72.71875 -75.953125 L 84.59375 -63 L 90.71875 -59.046875 L 96.84375 -55.796875 L 115.203125 -54 L 121.6875 -55.078125 L 132.84375 -55.796875 L 145.078125 -61.203125 L 149.765625 -66.59375 L 152.640625 -75.59375 L 150.484375 -84.59375 L 145.796875 -88.921875 L 132.84375 -95.046875 L 76.3125 -101.515625 L 63.359375 -105.84375 L 38.875 -119.15625 L 25.5625 -135.71875 L 19.796875 -148.3125 L 17.28125 -162.71875 L 16.921875 -173.875 L 18 -191.515625 L 24.484375 -211.3125 L 37.078125 -228.234375 L 54.359375 -240.125 L 66.59375 -247.3125 L 80.28125 -251.640625 L 86.765625 -252.71875 L 93.953125 -253.078125 L 101.875 -255.234375 L 129.59375 -254.515625 L 143.640625 -251.640625 L 163.796875 -244.796875 L 187.5625 -228.234375 L 195.484375 -217.4375 L 205.5625 -198.71875 L 206.28125 -191.875 L 207.71875 -185.046875 L 204.84375 -178.921875 L 198 -173.875 L 191.515625 -174.59375 L 184.3125 -174.59375 L 174.59375 -175.3125 L 157.6875 -173.875 L 149.765625 -178.5625 L 144.359375 -185.765625 L 138.234375 -190.796875 L 131.765625 -195.125 L 125.28125 -196.921875 L 113.765625 -198.359375 L 102.234375 -198 L 95.765625 -196.5625 L 90 -193.3125 L 84.59375 -189.359375 L 80.28125 -184.6875 L 78.484375 -174.953125 L 79.921875 -164.15625 L 85.3125 -159.125 L 98.640625 -152.640625 L 117.71875 -148.6875 L 128.15625 -148.6875 L 135.71875 -147.234375 L 142.921875 -146.875 L 150.125 -145.796875 L 178.203125 -137.15625 L 184.6875 -133.203125 L 190.4375 -130.3125 L 196.921875 -124.5625 L 206.28125 -113.765625 L 210.234375 -108 L 215.640625 -87.125 L 216.359375 -75.59375 L 214.203125 -57.59375 L 212.046875 -51.484375 L 209.875 -45 L 205.921875 -37.078125 L 202.3125 -32.046875 L 191.875 -21.234375 L 167.40625 -6.484375 L 160.5625 -3.234375 L 154.078125 -2.515625 L 146.875 0.359375 L 139.6875 1.4375 L 132.484375 3.234375 L 125.28125 3.953125 Z M 96.84375 3.234375 "/></g></g></g></svg>